<?xml version="1.0" encoding="UTF-8" standalone="no"?>
<!-- Created with Inkscape (http://www.inkscape.org/) -->

<svg
   xmlns:dc="http://purl.org/dc/elements/1.1/"
   xmlns:cc="http://creativecommons.org/ns#"
   xmlns:rdf="http://www.w3.org/1999/02/22-rdf-syntax-ns#"
   xmlns:svg="http://www.w3.org/2000/svg"
   xmlns="http://www.w3.org/2000/svg"
   xmlns:sodipodi="http://sodipodi.sourceforge.net/DTD/sodipodi-0.dtd"
   xmlns:inkscape="http://www.inkscape.org/namespaces/inkscape"
   width="50.569214mm"
   height="9.4653378mm"
   viewBox="0 0 179.18221 33.538601"
   id="svg4897"
   version="1.1"
   inkscape:version="0.91 r13725"
   sodipodi:docname="mabb-logo.svg">
  <defs
     id="defs4899" />
  <sodipodi:namedview
     id="base"
     pagecolor="#ffffff"
     bordercolor="#666666"
     borderopacity="1.0"
     inkscape:pageopacity="0.0"
     inkscape:pageshadow="2"
     inkscape:zoom="0.7"
     inkscape:cx="247.67485"
     inkscape:cy="2.8708528"
     inkscape:document-units="px"
     inkscape:current-layer="g13679"
     showgrid="false"
     fit-margin-top="0"
     fit-margin-left="0"
     fit-margin-right="0"
     fit-margin-bottom="0"
     inkscape:window-width="1920"
     inkscape:window-height="1027"
     inkscape:window-x="-8"
     inkscape:window-y="-8"
     inkscape:window-maximized="1" />
  <metadata
     id="metadata4902">
    <rdf:RDF>
      <cc:Work
         rdf:about="">
        <dc:format>image/svg+xml</dc:format>
        <dc:type
           rdf:resource="http://purl.org/dc/dcmitype/StillImage" />
        <dc:title></dc:title>
      </cc:Work>
    </rdf:RDF>
  </metadata>
  <g
     inkscape:label="Ebene 1"
     inkscape:groupmode="layer"
     id="layer1"
     transform="translate(-257.73373,-354.20832)">
    <g
       style="display:inline"
       id="g13679"
       transform="matrix(1.2599728,0,0,1.2599728,-152.79048,-725.40834)">
      <g
         transform="matrix(1.3133061,0,0,1.3133061,-213.79536,-449.84395)"
         id="g13667">
        <g
           id="g5929"
           transform="matrix(0.72380062,0,0,0.72380062,330.80028,1450.2847)">
          <path
             d="m 110.642,-602.669 7.318,0 0,-10.387 c 0,-1.995 0.629,-3.437 2.477,-3.437 2.217,0 2.402,1.626 2.402,3.437 l 0,10.387 7.319,0 0,-10.387 c 0,-1.995 0.628,-3.437 2.476,-3.437 2.218,0 2.403,1.626 2.403,3.437 l 0,10.387 7.318,0 0,-13.159 c 0,-3.104 -1.663,-6.505 -6.579,-6.505 -4.768,0 -6.247,2.772 -6.543,2.994 -0.887,-1.922 -3.104,-2.994 -5.174,-2.994 -2.661,0 -4.805,0.813 -6.284,3.031 l -0.073,0 0,-2.55 -7.06,0 0,19.183 z"
             style="fill:#e2001a;fill-opacity:1;fill-rule:nonzero;stroke:none"
             id="path5931"
             inkscape:connector-curvature="0" />
        </g>
        <g
           id="g5933"
           transform="matrix(0.72380062,0,0,0.72380062,330.80028,1450.2847)">
          <path
             d="m 159.487,-609.507 c -0.111,1.996 -1.404,2.994 -3.068,2.994 -1.33,0 -2.291,-0.887 -2.291,-1.774 0,-1.294 0.85,-1.701 2.476,-2.07 0.998,-0.222 1.996,-0.481 2.883,-0.924 l 0,1.774 z m 7.023,-5.323 c 0,-3.696 0.074,-7.503 -9.093,-7.503 -4.546,0 -9.646,0.887 -9.868,6.284 l 6.801,0 c 0.037,-0.813 0.48,-1.959 2.735,-1.959 1.183,0 2.402,0.48 2.402,1.774 0,1.22 -0.998,1.515 -1.996,1.7 -3.733,0.702 -10.829,0.481 -10.829,6.542 0,4.029 3.067,5.803 6.764,5.803 2.365,0 4.62,-0.517 6.172,-2.291 l 0.074,0 c -0.037,0.517 0.074,1.293 0.259,1.811 l 7.466,0 c -0.813,-1.22 -0.887,-2.846 -0.887,-4.288 l 0,-7.873 z"
             style="fill:#e2001a;fill-opacity:1;fill-rule:evenodd;stroke:none"
             id="path5935"
             inkscape:connector-curvature="0" />
        </g>
        <g
           id="g5937"
           transform="matrix(0.72380062,0,0,0.72380062,330.80028,1450.2847)">
          <path
             d="m 185.408,-612.279 c 0,2.291 -0.592,4.768 -3.216,4.768 -2.624,0 -3.216,-2.477 -3.216,-4.768 0,-2.255 0.592,-4.731 3.216,-4.731 2.624,0 3.216,2.476 3.216,4.731 m -13.491,9.61 7.059,0 0,-2.107 0.074,0 c 0.924,1.22 2.033,2.587 5.618,2.587 5.434,0 8.058,-5.359 8.058,-10.164 0,-4.509 -1.737,-9.98 -8.169,-9.98 -2.18,0 -4.139,0.961 -5.248,2.588 l -0.074,0 0,-9.315 -7.318,0 0,26.391 z"
             style="fill:#e2001a;fill-opacity:1;fill-rule:evenodd;stroke:none"
             id="path5939"
             inkscape:connector-curvature="0" />
        </g>
        <g
           id="g5941"
           transform="matrix(0.72380062,0,0,0.72380062,330.80028,1450.2847)">
          <path
             d="m 210.889,-612.279 c 0,2.291 -0.592,4.768 -3.216,4.768 -2.624,0 -3.216,-2.477 -3.216,-4.768 0,-2.255 0.592,-4.731 3.216,-4.731 2.624,0 3.216,2.476 3.216,4.731 m -13.492,9.61 7.06,0 0,-2.107 0.074,0 c 0.924,1.22 2.033,2.587 5.618,2.587 5.434,0 8.058,-5.359 8.058,-10.164 0,-4.509 -1.737,-9.98 -8.169,-9.98 -2.18,0 -4.139,0.961 -5.248,2.588 l -0.074,0 0,-9.315 -7.319,0 0,26.391 z"
             style="fill:#e2001a;fill-opacity:1;fill-rule:evenodd;stroke:none"
             id="path5943"
             inkscape:connector-curvature="0" />
        </g>
        <g
           id="g5945"
           transform="matrix(0.72380062,0,0,0.72380062,332.70386,1442.5727)">
          <path
             d="m 219.153,-592.243 38.465,0"
             style="fill:none;stroke:#e2001a;stroke-width:3.68099999;stroke-linecap:butt;stroke-linejoin:miter;stroke-miterlimit:3.86400008;stroke-dasharray:none;stroke-opacity:1"
             id="path5947"
             inkscape:connector-curvature="0" />
        </g>
      </g>
    </g>
  </g>
</svg>
