<?xml version="1.0" encoding="UTF-8" standalone="no"?>
<!-- Created with Inkscape (http://www.inkscape.org/) -->

<svg
   xmlns:dc="http://purl.org/dc/elements/1.1/"
   xmlns:cc="http://creativecommons.org/ns#"
   xmlns:rdf="http://www.w3.org/1999/02/22-rdf-syntax-ns#"
   xmlns:svg="http://www.w3.org/2000/svg"
   xmlns="http://www.w3.org/2000/svg"
   xmlns:sodipodi="http://sodipodi.sourceforge.net/DTD/sodipodi-0.dtd"
   xmlns:inkscape="http://www.inkscape.org/namespaces/inkscape"
   id="svg14376"
   version="1.1"
   inkscape:version="0.48.4 r9939"
   width="250"
   height="250"
   sodipodi:docname="qr-hackerspace.eps">
  <metadata
     id="metadata14382">
    <rdf:RDF>
      <cc:Work
         rdf:about="">
        <dc:format>image/svg+xml</dc:format>
        <dc:type
           rdf:resource="http://purl.org/dc/dcmitype/StillImage" />
        <dc:title></dc:title>
      </cc:Work>
    </rdf:RDF>
  </metadata>
  <defs
     id="defs14380" />
  <sodipodi:namedview
     pagecolor="#ffffff"
     bordercolor="#666666"
     borderopacity="1"
     objecttolerance="10"
     gridtolerance="10"
     guidetolerance="10"
     inkscape:pageopacity="0"
     inkscape:pageshadow="2"
     inkscape:window-width="1366"
     inkscape:window-height="727"
     id="namedview14378"
     showgrid="false"
     fit-margin-top="0"
     fit-margin-left="0"
     fit-margin-right="0"
     fit-margin-bottom="0"
     inkscape:zoom="0.67428571"
     inkscape:cx="-196.08051"
     inkscape:cy="123.51695"
     inkscape:window-x="0"
     inkscape:window-y="23"
     inkscape:window-maximized="1"
     inkscape:current-layer="svg14376" />
  <path
     style="fill:#dc0067;fill-opacity:1"
     d="m 0,215 0,-35 35,0 34.999998,0 0,35 0,35 L 35,250 0,250 0,215 z m 59.999998,0 0,-25 L 35,190 l -25,0 0,25 0,25 25,0 24.999998,0 0,-25 z M 20,215 l 0,-15 15,0 14.999998,0 0,15 0,15 L 35,230 l -15,0 0,-15 z m 59.999998,10 0,-25 5,0 5,0 0,5 0,5 5,0 5,0 0,5 0,5 -5,0 -5,0 0,5 0,5 10,0 10.000002,0 0,10 0,10 -5,0 -5.000002,0 0,-5 0,-5 -5,0 -5,0 0,5 0,5 -5,0 -5,0 0,-25 z M 120,240 l 0,-10 5,0 5,0 0,-5 0,-5 -5,0 -5,0 0,-5 0,-5 -5,0 -5,0 0,-5 0,-5 -5,0 -5.000002,0 0,-10 0,-10 -5,0 -5,0 0,5 0,5 -5,0 -5,0 0,-10 0,-10 -15,0 -15,0 0,-5 0,-5 L 45,160 l -5,0 0,-5 0,-5 -5,0 -5,0 0,10 0,10 -5,0 -5,0 0,-10 0,-10 5,0 5,0 0,-5 0,-5 -5,0 -5,0 0,-10 0,-10 -10,0 -10,0 0,-5 0,-5 30,0 29.999998,0 0,-5 0,-5 -10,0 L 40,100 l 0,-4.999999 0,-5 -5,0 -5,0 0,5 0,4.999999 -5,0 -5,0 0,-4.999999 0,-5 -10,0 -10,0 0,-5 0,-5 25,0 24.999998,0 0,5 0,5 5,0 5,0 0,-5 0,-5 25,0 25.000002,0 0,5 0,5 -5,0 -5.000002,0 0,9.999999 0,10 5.000002,0 5,0 0,-5 0,-5 10,0 10,0 0,5 0,5 -5,0 -5,0 0,10 0,10 5,0 5,0 0,-5 0,-5 5,0 5,0 0,5 0,5 5,0 5,0 0,5 0,5 5,0 5,0 0,5 0,5 5,0 5,0 0,5 0,5 5,0 5,0 0,-10 0,-10 -5,0 -5,0 0,-5 0,-5 -5,0 -5,0 0,-5 0,-5 -5,0 -5,0 0,-5 0,-5 -5,0 -5,0 0,-10 0,-9.999999 -10,0 -10,0 0,-15 0,-15 5,0 5,0 0,10 0,10 5,0 5,0 0,-20 L 140,40 l -5,0 -5,0 0,5 0,5 -5,0 -5,0 0,-5 0,-5 -5,0 -5,0 0,15.000001 0,15 -5,0 -5.000002,0 0,-15 0,-15.000001 -10,0 -10,0 0,-5 0,-5 5,0 5,0 0,-5 0,-5 -5,0 -5,0 0,-5 0,-5 5,0 5,0 0,-5 0,-5 5,0 5,0 0,10 0,10 5.000002,0 5,0 0,-5 0,-5 10,0 10,0 0,5 0,5 -5,0 -5,0 0,10 0,10 5,0 5,0 0,-5 0,-5 5,0 5,0 0,5 0,5 5,0 5,0 0,5 0,5 5,0 5,0 0,5.000001 0,5 5,0 5,0 0,10 0,10 5,0 5,0 0,10 0,9.999999 5,0 5,0 0,5 0,5 -5,0 -5,0 0,-5 0,-5 -5,0 -5,0 0,-9.999999 0,-10 -5,0 -5,0 0,-10 0,-10 -5,0 -5,0 0,10 0,10 -5,0 -5,0 0,5 0,5 5,0 5,0 0,5 0,4.999999 5,0 5,0 0,10 0,10 5,0 5,0 0,5 0,5 5,0 5,0 0,-5 0,-5 10,0 10,0 0,-5 0,-5 10,0 10,0 0,-10 0,-9.999999 -5,0 -5,0 0,-5 0,-5 5,0 5,0 0,5 0,5 5,0 5,0 0,-5 0,-5 5,0 5,0 0,5 0,5 -5,0 -5,0 0,5 0,4.999999 10,0 10,0 0,15 0,15 -10,0 -10,0 0,5 0,5 10,0 10,0 0,5 0,5 -5,0 -5,0 0,5 0,5 5,0 5,0 0,5 0,5 -15,0 -15,0 0,-5 0,-5 -5,0 -5,0 0,15 0,15 5,0 5,0 0,5 0,5 15,0 15,0 0,25 0,25 -35,0 -35,0 0,-10 0,-10 -5,0 -5,0 0,5 0,5 -5,0 -5,0 0,5 0,5 -10,0 -10,0 0,-5 0,-5 -5,0 -5,0 0,5 0,5 -5,0 -5,0 0,-10 z m 40,-5 0,-5 5,0 5,0 0,-5 0,-5 5,0 5,0 0,5 0,5 5,0 5,0 0,5 0,5 5,0 5,0 0,-5 0,-5 10,0 10,0 0,5 0,5 10,0 10,0 0,-10 0,-10 -5,0 -5,0 0,-5 0,-5 -5,0 -5,0 0,-5 0,-5 -5,0 -5,0 0,5 0,5 5,0 5,0 0,5 0,5 -20,0 -20,0 0,-5 0,-5 -5,0 -5,0 0,5 0,5 -5,0 -5,0 0,-5 0,-5 -5,0 -5,0 0,-10 0,-10 5,0 5,0 0,-5 0,-5 -10,0 -10,0 0,-5 0,-5 10,0 10,0 0,-5 0,-5 -10,0 -10,0 0,-5 0,-5 -5,0 -5,0 0,-5 0,-5 5,0 5,0 0,-5 0,-5 -5,0 -5,0 0,5 0,5 -5,0 -5,0 0,-5 0,-5 -5,0 -5,0 0,-5 0,-5 -5,0 -5.000002,0 0,5 0,5 5.000002,0 5,0 0,20 0,20 -5,0 -5.000002,0 0,-15 0,-15 -5,0 -5,0 0,10 0,10 -5,0 -5,0 0,-15 0,-15 -10,0 -10,0 0,-5 0,-5 5,0 5,0 0,-5 0,-5 -5,0 -5,0 0,5 0,5 -10,0 L 40,120 l 0,5 0,5 9.999998,0 10,0 0,5 0,5 5,0 5,0 0,5 0,5 -10,0 -10,0 0,5 0,5 15,0 15,0 0,5 0,5 10,0 10,0 0,5 0,5 20.000002,0 20,0 0,5 0,5 -10,0 -10,0 0,10 0,10 10,0 10,0 0,5 0,5 10,0 10,0 0,5 0,5 -10,0 -10,0 0,5 0,5 10,0 10,0 0,-5 z m 60,-10 0,-5 5,0 5,0 0,5 0,5 -5,0 -5,0 0,-5 z m -100,-65 0,-10 5,0 5,0 0,5 0,5 5,0 5,0 0,5 0,5 -10,0 -10,0 0,-10 z m 80,25 0,-15 -15,0 -15,0 0,15 0,15 15,0 15,0 0,-15 z m -20,0 0,-5 5,0 5,0 0,5 0,5 -5,0 -5,0 0,-5 z m 30,-40 0,-15 5,0 5,0 0,-5 0,-5 5,0 5,0 0,-5 0,-5 -5,0 -5,0 0,5 0,5 -5,0 -5,0 0,5 0,5 -15,0 -15,0 0,5 0,5 5,0 5,0 0,10 0,10 10,0 10,0 0,-15 z m 20,10 0,-5 -5,0 -5,0 0,5 0,5 5,0 5,0 0,-5 z m -140.000002,-45 0,-10 -5,0 -5,0 0,-4.999999 0,-5 -10,0 -10,0 0,5 0,4.999999 10,0 10,0 0,10 0,10 5,0 5,0 0,-10 z M 110,35 l 0,-5 -5,0 -5.000002,0 0,5 0,5 5.000002,0 5,0 0,-5 z m 120,150 0,-5 10,0 10,0 0,5 0,5 -10,0 -10,0 0,-5 z M 0,150 l 0,-20 5,0 5,0 0,20 0,20 -5,0 -5,0 0,-20 z m 190,-64.999999 0,-5 5,0 5,0 0,5 0,5 -5,0 -5,0 0,-5 z M 0,35 0,0 l 35,0 34.999998,0 0,35 0,35.000001 -34.999998,0 -35,0 L 0,35 z m 59.999998,0 0,-25 L 35,10 l -25,0 0,25 0,25.000001 25,0 24.999998,0 0,-25.000001 z M 20,35 l 0,-15 15,0 14.999998,0 0,15 0,15 L 35,50 20,50 20,35 z m 59.999998,25.000001 0,-10.000001 5,0 5,0 0,10.000001 0,10 -5,0 -5,0 0,-10 z M 180,35 l 0,-35 35,0 35,0 0,35 0,35.000001 -35,0 -35,0 L 180,35 z m 60,0 0,-25 -25,0 -25,0 0,25 0,25.000001 25,0 25,0 L 240,35 z m -40,0 0,-15 15,0 15,0 0,15 0,15 -15,0 -15,0 0,-15 z m -40,0 0,-5 -5,0 -5,0 0,-10 0,-10 -5,0 -5,0 0,-5 0,-5 5,0 5,0 0,5 0,5 5,0 5,0 0,10 0,10 5,0 5,0 0,5 0,5 -5,0 -5,0 0,-5 z"
     id="path14386"
     inkscape:connector-curvature="0" />
</svg>
