<?xml version="1.0" encoding="UTF-8" standalone="no"?>
<svg
   xmlns:dc="http://purl.org/dc/elements/1.1/"
   xmlns:cc="http://creativecommons.org/ns#"
   xmlns:rdf="http://www.w3.org/1999/02/22-rdf-syntax-ns#"
   xmlns:svg="http://www.w3.org/2000/svg"
   xmlns="http://www.w3.org/2000/svg"
   xmlns:sodipodi="http://sodipodi.sourceforge.net/DTD/sodipodi-0.dtd"
   xmlns:inkscape="http://www.inkscape.org/namespaces/inkscape"
   version="1.1"
   width="250"
   height="250"
   id="svg15894"
   inkscape:version="0.48.4 r9939"
   sodipodi:docname="qr-homepage.svg">
  <metadata
     id="metadata15902">
    <rdf:RDF>
      <cc:Work
         rdf:about="">
        <dc:format>image/svg+xml</dc:format>
        <dc:type
           rdf:resource="http://purl.org/dc/dcmitype/StillImage" />
      </cc:Work>
    </rdf:RDF>
  </metadata>
  <defs
     id="defs15900" />
  <sodipodi:namedview
     pagecolor="#ffffff"
     bordercolor="#666666"
     borderopacity="1"
     objecttolerance="10"
     gridtolerance="10"
     guidetolerance="10"
     inkscape:pageopacity="0"
     inkscape:pageshadow="2"
     inkscape:window-width="1366"
     inkscape:window-height="727"
     id="namedview15898"
     showgrid="false"
     fit-margin-top="0"
     fit-margin-left="0"
     fit-margin-right="0"
     fit-margin-bottom="0"
     inkscape:zoom="0.87407407"
     inkscape:cx="-119.25847"
     inkscape:cy="125"
     inkscape:window-x="0"
     inkscape:window-y="23"
     inkscape:window-maximized="1"
     inkscape:current-layer="svg15894" />
  <path
     style="fill:#dc0067;stroke:none"
     d="M 0,0 0,70 70,70 70,0 0,0 m 80,0 0,10 10,0 0,10 10,0 0,10 10,0 0,-20 20,0 0,10 -10,0 0,20 -10,0 0,10 -10,0 0,-10 -10,0 0,10 10,0 0,30 -10,0 0,-20 -10,0 0,20 10,0 0,20 10,0 0,10 -10,0 0,40 10,0 0,10 -10,0 0,10 -10,0 0,10 20,0 0,10 20,0 0,-10 -10,0 0,-10 10,0 0,-10 -10,0 0,-10 -10,0 0,-30 10,0 0,-10 10,0 0,-10 10,0 0,-20 10,0 0,10 10,0 0,20 -10,0 0,10 10,0 0,10 -10,0 0,30 -10,0 0,20 10,0 0,10 -10,0 0,10 -10,0 0,10 -20,0 0,10 -10,0 0,-20 -10,0 0,20 10,0 0,10 -10,0 0,20 20,0 0,-10 -10,0 0,-10 10,0 0,-10 10,0 0,10 30,0 0,-10 10,0 0,-10 20,0 0,10 -10,0 0,10 20,0 0,20 10,0 0,-10 20,0 0,10 10,0 0,-10 20,0 0,10 10,0 0,-40 -20,0 0,10 -10,0 0,-20 -10,0 0,-10 10,0 0,-10 -10,0 0,-30 10,0 0,20 10,0 0,10 10,0 0,10 -10,0 0,10 10,0 0,-10 10,0 0,-10 -10,0 0,-20 10,0 0,-20 -10,0 0,-10 10,0 0,-30 -10,0 0,-10 10,0 0,-10 -10,0 0,10 -50,0 0,-10 -10,0 0,10 10,0 0,10 -10,0 0,30 10,0 0,-30 20,0 0,20 30,0 0,10 -10,0 0,10 -20,0 0,-10 -10,0 0,10 -10,0 0,10 -10,0 0,-10 -10,0 0,-20 -10,0 0,-50 10,0 0,-40 -10,0 0,-10 10,0 0,-10 -10,0 0,10 -10,0 0,-20 -10,0 0,10 -10,0 0,-10 -20,0 0,10 -20,0 0,-10 -10,0 m 100,0 0,70 70,0 0,-70 -70,0 m -120,10 0,50 -50,0 0,-50 50,0 m 180,0 0,50 -50,0 0,-50 50,0 m -220,10 0,30 30,0 0,-30 -30,0 m 180,0 0,30 30,0 0,-30 -30,0 m -40,10 0,40 -10,0 0,-30 -10,0 0,10 -20,0 0,20 10,0 0,-10 10,0 0,10 -10,0 0,10 -10,0 0,-10 -10,0 0,-20 10,0 0,-10 20,0 0,-10 20,0 M 0,80 l 0,20 10,0 0,10 10,0 0,-10 10,0 0,30 10,0 0,-20 10,0 0,10 10,0 0,10 -10,0 0,10 10,0 0,10 10,0 0,10 -10,0 0,10 10,0 0,-10 10,0 0,-20 -20,0 0,-10 20,0 0,-20 -10,0 0,-10 -10,0 0,-10 10,0 0,-10 -10,0 0,10 -10,0 0,-10 -20,0 0,10 -10,0 0,-10 -20,0 m 20,10 0,10 -10,0 0,-10 10,0 m 100,0 0,10 -20,0 0,-10 20,0 m -60,10 0,10 10,0 0,10 -10,0 0,-10 -10,0 0,-10 10,0 m 180,0 0,10 -20,0 0,-10 20,0 m -230,20 0,10 -10,0 0,40 10,0 0,-20 30,0 0,-10 -20,0 0,-20 -10,0 m 110,0 0,10 -10,0 0,10 10,0 0,10 10,0 0,-30 -10,0 m 50,30 0,10 -10,0 0,40 -10,0 0,10 -20,0 0,10 -10,0 0,-10 10,0 0,-10 10,0 0,-10 10,0 0,-10 -10,0 0,-20 20,0 0,-10 10,0 m 30,0 0,10 -10,0 0,-10 10,0 m 40,0 0,10 -10,0 0,-10 10,0 m -220,10 0,10 10,0 0,-10 -10,0 m 180,10 0,30 -30,0 0,-30 30,0 m -200,10 0,70 70,0 0,-70 -70,0 m 180,0 0,10 10,0 0,-10 -10,0 m -120,10 0,50 -50,0 0,-50 50,0 m -40,10 0,30 30,0 0,-30 -30,0 m 190,10 0,10 10,0 0,20 -10,0 0,-20 -20,0 0,10 -10,0 0,-10 10,0 0,-10 20,0 m -90,30 0,10 10,0 0,-10 -10,0 m 40,0 0,10 10,0 0,-10 -10,0 z"
     id="path15896"
     inkscape:connector-curvature="0" />
</svg>
