<?xml version="1.0" standalone="yes"?>
<svg version="1.1" xmlns="http://www.w3.org/2000/svg" xmlns:xlink="http://www.w3.org/1999/xlink" xmlns:ev="http://www.w3.org/2001/xml-events" width="310" height="310">
<path style="fill:#dc0067; stroke:none;" d="M10 10L10 80L80 80L80 10L10 10M90 10L90 50L100 50L100 60L90 60L90 80L100 80L100 70L110 70L110 100L120 100L120 90L130 90L130 100L140 100L140 110L160 110L160 120L150 120L150 130L140 130L140 120L130 120L130 130L120 130L120 140L110 140L110 150L100 150L100 130L110 130L110 120L120 120L120 110L90 110L90 100L80 100L80 90L50 90L50 100L40 100L40 110L20 110L20 100L30 100L30 90L10 90L10 110L20 110L20 140L30 140L30 150L10 150L10 160L20 160L20 170L10 170L10 190L30 190L30 200L40 200L40 210L50 210L50 180L60 180L60 170L70 170L70 180L80 180L80 190L60 190L60 220L90 220L90 230L100 230L100 240L90 240L90 260L100 260L100 280L90 280L90 300L130 300L130 290L140 290L140 300L160 300L160 280L150 280L150 290L140 290L140 280L130 280L130 290L120 290L120 280L110 280L110 260L100 260L100 240L110 240L110 230L120 230L120 250L130 250L130 260L140 260L140 270L170 270L170 280L180 280L180 260L190 260L190 280L200 280L200 290L210 290L210 300L220 300L220 290L210 290L210 260L240 260L240 270L260 270L260 280L230 280L230 270L220 270L220 280L230 280L230 300L270 300L270 290L260 290L260 280L280 280L280 290L290 290L290 280L300 280L300 270L280 270L280 260L270 260L270 250L260 250L260 220L270 220L270 240L280 240L280 230L290 230L290 220L300 220L300 210L290 210L290 220L270 220L270 210L280 210L280 200L300 200L300 180L290 180L290 170L300 170L300 130L290 130L290 170L270 170L270 160L260 160L260 140L270 140L270 130L230 130L230 120L260 120L260 110L250 110L250 90L240 90L240 100L230 100L230 110L220 110L220 120L210 120L210 110L190 110L190 120L180 120L180 130L170 130L170 140L160 140L160 120L170 120L170 100L180 100L180 90L190 90L190 80L200 80L200 100L220 100L220 40L210 40L210 30L220 30L220 20L210 20L210 30L200 30L200 40L190 40L190 60L170 60L170 40L180 40L180 30L190 30L190 20L200 20L200 10L190 10L190 20L170 20L170 10L160 10L160 20L150 20L150 10L140 10L140 20L120 20L120 30L130 30L130 60L140 60L140 30L170 30L170 40L160 40L160 50L150 50L150 60L160 60L160 70L150 70L150 80L140 80L140 70L130 70L130 80L120 80L120 40L110 40L110 30L100 30L100 10L90 10M230 10L230 80L300 80L300 10L230 10M70 20L70 70L20 70L20 20L70 20M290 20L290 70L240 70L240 20L290 20M30 30L30 60L60 60L60 30L30 30M250 30L250 60L280 60L280 30L250 30M210 40L210 80L200 80L200 70L190 70L190 80L180 80L180 70L190 70L190 60L200 60L200 40L210 40M170 70L170 100L150 100L150 80L160 80L160 70L170 70M140 80L140 90L130 90L130 80L140 80M260 90L260 100L270 100L270 120L280 120L280 110L300 110L300 90L260 90M80 100L80 110L60 110L60 100L80 100M50 110L50 120L100 120L100 130L70 130L70 140L80 140L80 150L70 150L70 140L50 140L50 170L30 170L30 150L40 150L40 130L50 130L50 120L40 120L40 110L50 110M140 130L140 140L160 140L160 150L140 150L140 140L130 140L130 150L120 150L120 160L110 160L110 150L120 150L120 140L130 140L130 130L140 130M200 130L200 140L190 140L190 150L210 150L210 130L220 130L220 140L230 140L230 160L260 160L260 170L240 170L240 180L230 180L230 200L260 200L260 210L220 210L220 200L200 200L200 190L160 190L160 200L180 200L180 210L200 210L200 220L210 220L210 260L200 260L200 240L190 240L190 250L170 250L170 260L150 260L150 240L170 240L170 230L140 230L140 220L130 220L130 230L120 230L120 220L90 220L90 210L70 210L70 200L90 200L90 210L120 210L120 180L100 180L100 190L110 190L110 200L100 200L100 190L90 190L90 180L100 180L100 170L70 170L70 160L100 160L100 170L130 170L130 160L140 160L140 170L130 170L130 180L140 180L140 190L160 190L160 180L150 180L150 160L170 160L170 140L180 140L180 130L200 130M210 150L210 160L190 160L190 170L170 170L170 180L230 180L230 160L220 160L220 150L210 150M260 180L260 190L250 190L250 180L260 180M290 180L290 190L280 190L280 200L270 200L270 190L280 190L280 180L290 180M130 200L130 210L120 210L120 220L130 220L130 210L140 210L140 220L160 220L160 200L150 200L150 210L140 210L140 200L130 200M10 210L10 220L30 220L30 210L10 210M190 220L190 230L200 230L200 220L190 220M250 220L250 250L220 250L220 220L250 220M10 230L10 300L80 300L80 230L10 230M230 230L230 240L240 240L240 230L230 230M70 240L70 290L20 290L20 240L70 240M140 240L140 250L130 250L130 240L140 240M30 250L30 280L60 280L60 250L30 250M270 260L270 270L260 270L260 260L270 260M110 280L110 290L100 290L100 280L110 280M180 290L180 300L190 300L190 290L180 290z"/>
</svg>
